<svg width="24" height="24" viewBox="0 0 24 24" fill="none" xmlns="http://www.w3.org/2000/svg">
<path d="M8 6C8 3.79086 9.79086 2 12 2C14.2091 2 16 3.79086 16 6V12C16 14.2091 14.2091 16 12 16C9.79086 16 8 14.2091 8 12V6ZM14 6C14 4.89543 13.1046 4 12 4C10.8954 4 10 4.89543 10 6V12C10 13.1046 10.8954 14 12 14C13.1046 14 14 13.1046 14 12V6Z" fill="#0F1621"/>
<path d="M6 10V12C6 15.3137 8.68629 18 12 18C15.3137 18 18 15.3137 18 12V10H20V12C20 16.0796 16.9463 19.446 13 19.9381V22H11V19.9381C7.05369 19.446 4 16.0796 4 12V10H6Z" fill="#0F1621"/>
</svg>
