<svg width="24" height="24" viewBox="0 0 24 24" fill="none" xmlns="http://www.w3.org/2000/svg">
<path d="M15.4931 4.04973C14.8089 2.82676 13.501 2 12 2C9.79081 2 7.99995 3.79086 7.99995 6V11.5429L9.99995 9.54289V6C9.99995 4.89543 10.8954 4 12 4C12.9625 4 13.7663 4.68 13.957 5.58583L15.4931 4.04973ZM16 10.6889V12C16 14.2091 14.2091 16 12 16C11.5588 16 11.1343 15.9286 10.7374 15.7967C12.5049 14.0812 14.2279 12.4088 16 10.6889ZM6.16007 13.3828C6.05536 12.9389 5.99995 12.4759 5.99995 12V11H3.99995V12C3.99995 13.0504 4.20239 14.0535 4.57038 14.9725L6.16007 13.3828ZM7.6984 18.7463L9.18726 17.3012C10.0262 17.7473 10.9836 18 12 18C15.3137 18 18 15.3137 18 12V11H20V12C20 16.0796 16.9463 19.446 13 19.9381V22H11V19.9381C9.79587 19.788 8.6749 19.3702 7.6984 18.7463Z" fill="#0F1621"/>
<path d="M2.29285 19.2929L19.2928 2.29289L20.7071 3.70711L3.70706 20.7071L2.29285 19.2929Z" fill="#0F1621"/>
</svg>
