<svg width="20" height="20" viewBox="0 0 20 20" fill="none" xmlns="http://www.w3.org/2000/svg">
<path d="M15.6494 19.7054C18.319 17.3245 20 13.8587 20 10.0002C20 6.12767 18.3067 2.65063 15.6202 0.269043L14.1871 1.67259C16.5222 3.6897 18 6.67237 18 10.0002C18 13.3102 16.538 16.2788 14.2245 18.2953L15.6494 19.7054Z" fill="#0F1621"/>
<path d="M12.9191 17.0035C14.8128 15.2669 16 12.7722 16 10.0002C16 7.20702 14.7945 4.69539 12.8755 2.95717L11.4434 4.35977C13.0106 5.73439 14 7.75175 14 10.0002C14 12.2237 13.0324 14.2212 11.4953 15.5946L12.9191 17.0035Z" fill="#0F1621"/>
<path d="M10.07 14.1842C11.2512 13.1754 12 11.6752 12 10.0002C12 8.2964 11.2253 6.77355 10.0089 5.7647L8.56781 7.17605C9.4362 7.81296 9.99999 8.84074 9.99999 10.0002C9.99999 11.127 9.46753 12.1294 8.6405 12.7696L10.07 14.1842Z" fill="#0F1621"/>
<path d="M3 6.00012H0V14.0001H3L7 18.0001V2.00012L3 6.00012ZM5 6.82855V13.1717L3.82843 12.0001H2V8.00012H3.82843L5 6.82855Z" fill="#0F1621"/>
</svg>
