<svg width="14" height="16" viewBox="0 0 14 16" fill="none" xmlns="http://www.w3.org/2000/svg">
<path d="M10.8612 15.0559C12.7886 13.3172 14.0001 10.8 14.0001 7.99988C14.0001 5.17869 12.7703 2.64472 10.8176 0.904785L9.38454 2.30832C10.9858 3.68379 12.0001 5.72339 12.0001 7.99988C12.0001 10.2515 11.0078 12.2715 9.43672 13.6462L10.8612 15.0559Z" fill="#0F1621"/>
<path d="M8.30124 12.5226C9.64014 11.4698 10.5 9.83527 10.5 7.99991C10.5 6.13659 9.61374 4.48027 8.23971 3.42955L6.7879 4.85142C7.81836 5.51976 8.50005 6.68023 8.50005 7.99991C8.50005 9.28751 7.85111 10.4235 6.86245 11.0988L8.30124 12.5226Z" fill="#0F1621"/>
<path d="M2.5 4.99988H0V10.9999H2.5L6 13.9999V1.99988L2.5 4.99988ZM4.5 5.26121V10.7386L3.05489 9.49988H1.5V6.49988H3.05489L4.5 5.26121Z" fill="#0F1621"/>
</svg>
