<svg width="8" height="8" viewBox="0 0 8 8" fill="none" xmlns="http://www.w3.org/2000/svg">
<path d="M5.22184 0.656802C4.15639 0.261698 2.91156 0.49221 2.05543 1.34834L1.34832 2.05544C0.492195 2.91157 0.261683 4.15641 0.656787 5.22185L1.99925 3.87939C2.05555 3.5997 2.19212 3.33296 2.40898 3.1161L3.11609 2.409C3.33295 2.19214 3.59969 2.05556 3.87937 1.99927L5.22184 0.656802Z" fill="#0F1621"/>
<path d="M4.12057 6.00071C4.40026 5.94441 4.667 5.80784 4.88386 5.59098L5.59096 4.88387C5.80782 4.66701 5.9444 4.40027 6.0007 4.12059L7.34316 2.77812C7.73826 3.84357 7.50775 5.0884 6.65162 5.94453L5.94452 6.65164C5.08839 7.50777 3.84355 7.73828 2.77811 7.34317L4.12057 6.00071Z" fill="#0F1621"/>
<path d="M6.8284 0.110901L7.88906 1.17156L5.06063 3.99999L3.99997 2.93933L6.8284 0.110901Z" fill="#0F1621"/>
<path d="M2.93931 3.99999L3.99997 5.06065L1.17155 7.88908L0.110886 6.82842L2.93931 3.99999Z" fill="#0F1621"/>
</svg>
