<svg width="16" height="16" viewBox="0 0 16 16" fill="none" xmlns="http://www.w3.org/2000/svg">
<path d="M9 6.99998H10.55L10.9 7.99998H8.5L7.5 8.99998H5L4.25 7.74998H1V8.99998H3.5L4.24624 10.1133C4.01057 10.0396 3.75992 9.99998 3.5 9.99998C2.11929 9.99998 1 11.1193 1 12.5C1 13.8807 2.11929 15 3.5 15C4.79955 15 5.86751 14.0084 5.98857 12.7406L6.49217 13.5H8.5C8.5 13.5 8 12 9 10.5C10 8.99998 11.25 8.99998 11.25 8.99998L11.6346 10.1538C10.6804 10.5059 10 11.4235 10 12.5C10 13.8807 11.1193 15 12.5 15C13.8807 15 15 13.8807 15 12.5C15 11.3507 14.2245 10.3826 13.1683 10.0903L12.7534 8.99998H14V7.99998H12.45L11.7 5.99998H9V6.99998ZM3.5 13.5C2.94772 13.5 2.5 13.0523 2.5 12.5C2.5 11.9477 2.94772 11.5 3.5 11.5C4.05228 11.5 4.5 11.9477 4.5 12.5C4.5 13.0523 4.05228 13.5 3.5 13.5ZM12.5 13.5C11.9477 13.5 11.5 13.0523 11.5 12.5C11.5 11.9477 11.9477 11.5 12.5 11.5C13.0523 11.5 13.5 11.9477 13.5 12.5C13.5 13.0523 13.0523 13.5 12.5 13.5Z" fill="#0F1621"/>
<path d="M7.66667 4.66665H8.33334C8.77537 4.66665 9.19929 4.49105 9.51185 4.17849C9.82441 3.86593 10 3.44201 10 2.99998C10 2.55795 9.82441 2.13403 9.51185 1.82147C9.19929 1.50891 8.77537 1.33331 8.33334 1.33331H6.66667V5.99998H7.66667V4.66665ZM7.66667 2.33331H8.33334C8.51015 2.33331 8.67972 2.40355 8.80474 2.52858C8.92977 2.6536 9 2.82317 9 2.99998C9 3.17679 8.92977 3.34636 8.80474 3.47138C8.67972 3.59641 8.51015 3.66665 8.33334 3.66665H7.66667V2.33331Z" fill="#0F1621"/>
</svg>
