<svg width="16" height="16" viewBox="0 0 16 16" fill="none" xmlns="http://www.w3.org/2000/svg">
<path d="M7.66669 4.66665H8.33335C8.77538 4.66665 9.1993 4.49105 9.51186 4.17849C9.82442 3.86593 10 3.44201 10 2.99998C10 2.55795 9.82442 2.13403 9.51186 1.82147C9.1993 1.50891 8.77538 1.33331 8.33335 1.33331H6.66669V5.99998H7.66669V4.66665ZM7.66669 2.33331H8.33335C8.51016 2.33331 8.67973 2.40355 8.80476 2.52858C8.92978 2.6536 9.00002 2.82317 9.00002 2.99998C9.00002 3.17679 8.92978 3.34636 8.80476 3.47138C8.67973 3.59641 8.51016 3.66665 8.33335 3.66665H7.66669V2.33331Z" fill="#0F1621"/>
<path d="M3.50002 6.99998H4.6008L4.78413 7.49998H4.77852L5.33596 8.98649L5.32819 8.98155L5.03031 9.44964C4.71156 9.32077 4.3635 9.24998 4 9.24998C2.48122 9.24998 1.25 10.4812 1.25 12C1.25 13.5188 2.48122 14.75 4 14.75C5.34803 14.75 6.46953 13.78 6.70466 12.5H7.25002L10.0071 8.82388L10.4257 9.74489C9.71491 10.242 9.25002 11.0667 9.25002 12C9.25002 13.5188 10.4812 14.75 12 14.75C13.5188 14.75 14.75 13.5188 14.75 12C14.75 10.4812 13.5188 9.24998 12 9.24998C11.771 9.24998 11.5486 9.27797 11.3359 9.3307L10.2765 6.99998H11.5V5.99998H9.88827C9.3428 5.99998 8.97978 6.56376 9.20549 7.06034L9.40533 7.49998H5.84923L5.6659 6.99998H6.00002V5.99998H3.50002V6.99998ZM5.67753 12.5C5.46239 13.2229 4.79275 13.75 4 13.75C3.0335 13.75 2.25 12.9665 2.25 12C2.25 11.0335 3.0335 10.25 4 10.25C4.16649 10.25 4.32703 10.2731 4.47888 10.3162L3.82269 11.3473C3.50496 11.8466 3.86362 12.5 4.45544 12.5H5.67753ZM10.25 12C10.25 11.4733 10.4827 11.001 10.8509 10.6801L11.7517 12.6621L12.6621 12.2483L11.7611 10.2662C11.8392 10.2555 11.919 10.25 12 10.25C12.9665 10.25 13.75 11.0335 13.75 12C13.75 12.9665 12.9665 13.75 12 13.75C11.0335 13.75 10.25 12.9665 10.25 12ZM4.91086 11.5L5.77141 10.1477L6.27852 11.5H4.91086ZM9.00002 8.49998L7.14769 10.9698L6.22152 8.49998H9.00002Z" fill="#0F1621"/>
</svg>
